<svg width="221" height="71" viewBox="0 0 221 71" xmlns="http://www.w3.org/2000/svg">
  <path fill-rule="evenodd" clip-rule="evenodd" d="M147 0H144V2H147V0ZM208.929 1H211.714V33.9998H208.929V1ZM216.357 5.21286H213.571V33.9999H216.357V5.21286ZM221 19.9575H218.214V33.9999H221V19.9575ZM207.071 27.6805H204.286V33.9996H207.071V27.6805ZM199.643 12.2343H202.429V34.0001H199.643V12.2343ZM197.786 15.0429H195V34.0002H197.786V15.0429ZM190.357 29.0848H193.143V33.9996H190.357V29.0848ZM188.5 5.21286H185.714V33.9999H188.5V5.21286ZM181.071 15.0429H183.857V34.0002H181.071V15.0429ZM179.214 27.6805H176.429V33.9996H179.214V27.6805ZM171.786 25.574H174.571V33.9995H171.786V25.574ZM169.929 12.2343H167.143V34.0001H169.929V12.2343ZM162.5 9.42572H165.286V34H162.5V9.42572ZM160.643 3.10643H157.857V33.9998H160.643V3.10643ZM153.214 15.0429H156V34.0002H153.214V15.0429ZM151.357 29.0848H148.571V33.9996H151.357V29.0848ZM143.929 3.10643H146.714V33.9998H143.929V3.10643ZM139.286 23.4676H142.071V33.9995H139.286V23.4676ZM137.429 9.42572H134.643V34H137.429V9.42572ZM130 15.0429H132.786V34.0002H130V15.0429ZM128.143 19.9569H125.357V33.9994H128.143V19.9569ZM120.714 11.5322H123.5V34.0001H120.714V11.5322ZM118.857 9.42572H116.071V34H118.857V9.42572ZM111.429 6.61715H114.214V33.9999H111.429V6.61715ZM109.571 19.2548H106.786V33.9993H109.571V19.2548ZM102.143 24.8719H104.929V33.9995H102.143V24.8719ZM100.286 29.7869H97.5V33.9996H100.286V29.7869ZM92.8571 22.7655H95.6429V33.9994H92.8571V22.7655ZM91 12.2343H88.2143V34.0001H91V12.2343ZM83.5714 8.72358H86.3571V34H83.5714V8.72358ZM81.7143 26.2762H78.9286V33.9995H81.7143V26.2762ZM74.2857 29.0848H77.0714V33.9996H74.2857V29.0848ZM72.4286 31.1912H69.6429V33.9997H72.4286V31.1912ZM65 19.9569H67.7857V33.9994H65V19.9569ZM63.1429 24.8719H60.3571V33.9995H63.1429V24.8719ZM55.7143 10.83H58.5V34.0001H55.7143V10.83ZM53.8571 15.0429H51.0714V34.0002H53.8571V15.0429ZM46.4286 17.8514H49.2143V34.0003H46.4286V17.8514ZM44.5714 23.4676H41.7857V33.9995H44.5714V23.4676ZM37.1429 28.3826H39.9286V33.9996H37.1429V28.3826ZM35.2857 25.574H32.5V33.9995H35.2857V25.574ZM27.8571 15.745H30.6429V34.0002H27.8571V15.745ZM26 25.574H23.2143V33.9995H26V25.574ZM18.5714 29.7869H21.3571V33.9996H18.5714V29.7869ZM16.7143 22.7655H13.9286V33.9994H16.7143V22.7655ZM9.28571 15.745H12.0714V34.0002H9.28571V15.745ZM7.42857 24.8719H4.64285V33.9995H7.42857V24.8719ZM0 28.3826H2.78572V33.9996H0V28.3826Z" fill="url(#paint0_linear)"/>
  <path transform="translate(0 38)" fill-rule="evenodd" clip-rule="evenodd" d="M211.714 32.9995H208.929V-0.000255585H211.714V32.9995ZM213.571 28.7867H216.357V-0.00038147H213.571V28.7867ZM218.214 14.0425H221V8.39233e-05H218.214V14.0425ZM204.286 6.31904H207.071V-6.86646e-05H204.286V6.31904ZM202.429 21.7652H199.643V-0.000587463H202.429V21.7652ZM195 18.9566H197.786V-0.000671387H195V18.9566ZM193.143 4.91475H190.357V-0.000110626H193.143V4.91475ZM185.714 28.7867H188.5V-0.00038147H185.714V28.7867ZM183.857 18.9566H181.071V-0.000671387H183.857V18.9566ZM176.429 6.31904H179.214V-6.86646e-05H176.429V6.31904ZM174.571 8.42547H171.786V-7.62939e-06H174.571V8.42547ZM167.143 21.7652H169.929V-0.000587463H167.143V21.7652ZM165.286 24.5738H162.5V-0.00050354H165.286V24.5738ZM157.857 30.8931H160.643V-0.00031662H157.857V30.8931ZM156 18.9566H153.214V-0.000671387H156V18.9566ZM148.571 4.91475H151.357V-0.000110626H148.571V4.91475ZM146.714 30.8931H143.929V-0.00031662H146.714V30.8931ZM139.286 10.5319H142.071V5.72205e-05H139.286V10.5319ZM137.429 24.5738H134.643V-0.00050354H137.429V24.5738ZM130 18.9566H132.786V-0.000671387H130V18.9566ZM128.143 14.0426H125.357V0.000160217H128.143V14.0426ZM120.714 22.4674H123.5V-0.00056839H120.714V22.4674ZM118.857 24.5738H116.071V-0.00050354H118.857V24.5738ZM111.429 27.3824H114.214V-0.000419617H111.429V27.3824ZM109.571 14.7448H106.786V0.000183105H109.571V14.7448ZM102.143 9.12761H104.929V1.52588e-05H102.143V9.12761ZM100.286 4.21261H97.5V-0.0001297H100.286V4.21261ZM92.8571 11.234H95.6429V7.62939e-05H92.8571V11.234ZM91 21.7652H88.2143V-0.000587463H91V21.7652ZM83.5714 25.2759H86.3571V-0.000480652H83.5714V25.2759ZM81.7143 7.72332H78.9286V-2.67029e-05H81.7143V7.72332ZM74.2857 4.91475H77.0714V-0.000110626H74.2857V4.91475ZM72.4286 2.80832H69.6429V-0.000171661H72.4286V2.80832ZM65 14.0426H67.7857V0.000160217H65V14.0426ZM63.1429 9.12761H60.3571V1.52588e-05H63.1429V9.12761ZM55.7143 23.1695H58.5V-0.000545502H55.7143V23.1695ZM53.8571 18.9566H51.0714V-0.000671387H53.8571V18.9566ZM46.4286 16.1481H49.2143V-0.000751495H46.4286V16.1481ZM44.5714 10.5319H41.7857V5.72205e-05H44.5714V10.5319ZM37.1429 5.61689H39.9286V-8.7738e-05H37.1429V5.61689ZM35.2857 8.42547H32.5V-7.62939e-06H35.2857V8.42547ZM27.8571 18.2545H30.6429V-0.00069046H27.8571V18.2545ZM26 8.42547H23.2143V-7.62939e-06H26V8.42547ZM18.5714 4.21261H21.3571V-0.0001297H18.5714V4.21261ZM16.7143 11.234H13.9286V7.62939e-05H16.7143V11.234ZM9.28571 18.2545H12.0714V-0.00069046H9.28571V18.2545ZM7.42857 9.12761H4.64285V1.52588e-05H7.42857V9.12761ZM0 6H3V0H0V6Z" fill="url(#paint0_linear)"/>
  <defs>
    <linearGradient id="paint0_linear" x1="221" y1="1" x2="-8.82143" y2="1" gradientUnits="userSpaceOnUse">
      <stop stop-color="#B1C7DD"/>
      <stop offset="1" stop-color="#98B2C8"/>
    </linearGradient>
  </defs>
</svg>
