<svg width="90" height="90" viewBox="0 0 90 90" fill="none" xmlns="http://www.w3.org/2000/svg">
  <circle cx="45" cy="45" r="45" fill="#E4EBF1" />
  <path d="M22.9883 48.9131H32.3175L39.6187 69.4566H30.2894L22.9883 48.9131Z" fill="#738AA4" />
  <path d="M28.587 71.4571C28.9236 70.3909 29.8251 69.6004 30.926 69.4059L39.4342 67.9032C40.7786 67.6657 42.1138 68.366 42.6829 69.6069L44.0293 72.543C44.9406 74.5302 43.4885 76.7935 41.3023 76.7935H30.9954C28.9678 76.7935 27.5241 74.8238 28.1345 72.8903L28.587 71.4571Z" fill="#405A73" />
  <circle cx="22.99" cy="37.1739" r="12.2283" fill="#738AA4" />
  <path d="M63.5876 13.6957C56.2004 22.7739 37.3574 25.03 28.8594 25.03V37.1739H63.5876V13.6957Z" fill="#C4DADA" />
  <path d="M63.5876 61.1414C56.2004 51.874 37.3574 49.5709 28.8594 49.5709V37.174H63.5876V61.1414Z" fill="#B2C8C8" />
  <path d="M66.0332 46.4674C71.1658 46.4674 75.3267 42.3066 75.3267 37.174C75.3267 32.0413 71.1658 27.8805 66.0332 27.8805V46.4674Z" fill="#B83B2D" />
  <path d="M63.5879 13.6957H64.5009C66.1578 13.6957 67.5009 15.0388 67.5009 16.6957V58.1413C67.5009 59.7982 66.1578 61.1413 64.5009 61.1413H63.5879V13.6957Z" fill="#738AA4" />
  <rect x="22.9883" y="24.9457" width="5.86957" height="24.4565" fill="#738AA4" />
</svg>
